<mxfile host="65bd71144e">
    <diagram id="b_kkM3vol1KxLTzf2v2B" name="Page-1">
        <mxGraphModel dx="1883" dy="1312" grid="1" gridSize="10" guides="1" tooltips="1" connect="1" arrows="1" fold="1" page="1" pageScale="1" pageWidth="850" pageHeight="1100" math="0" shadow="0">
            <root>
                <mxCell id="0"/>
                <mxCell id="1" parent="0"/>
                <mxCell id="20" value="Poza aplikacją" style="swimlane;horizontal=0;whiteSpace=wrap;html=1;" vertex="1" parent="1">
                    <mxGeometry width="980" height="340" as="geometry"/>
                </mxCell>
                <mxCell id="3" value="Klient" style="swimlane;whiteSpace=wrap;html=1;fillColor=#ffe6cc;strokeColor=#d79b00;" vertex="1" parent="20">
                    <mxGeometry x="40" y="20" width="200" height="300" as="geometry"/>
                </mxCell>
                <mxCell id="4" value="Utworzenie zlecenia" style="rounded=0;whiteSpace=wrap;html=1;fillColor=#f8cecc;strokeColor=#b85450;" vertex="1" parent="3">
                    <mxGeometry x="20" y="40" width="160" height="80" as="geometry"/>
                </mxCell>
                <mxCell id="5" value="Użytkownik" style="swimlane;whiteSpace=wrap;html=1;fillColor=#d5e8d4;strokeColor=#82b366;startSize=23;" vertex="1" parent="20">
                    <mxGeometry x="520" y="20" width="200" height="300" as="geometry"/>
                </mxCell>
                <mxCell id="6" value="Przyjęcie zlecenia" style="rounded=0;whiteSpace=wrap;html=1;fillColor=#f8cecc;strokeColor=#b85450;" vertex="1" parent="5">
                    <mxGeometry x="20" y="100" width="160" height="80" as="geometry"/>
                </mxCell>
                <mxCell id="7" value="Platforma tłumaczy" style="swimlane;whiteSpace=wrap;html=1;fillColor=#fff2cc;strokeColor=#d6b656;" vertex="1" parent="20">
                    <mxGeometry x="280" y="20" width="200" height="300" as="geometry"/>
                </mxCell>
                <mxCell id="8" value="Zlecenie oczekuje" style="rounded=0;whiteSpace=wrap;html=1;" vertex="1" parent="7">
                    <mxGeometry x="20" y="40" width="160" height="80" as="geometry"/>
                </mxCell>
                <mxCell id="10" value="Odnotowanie przyjęcia zlecenia" style="rounded=0;whiteSpace=wrap;html=1;" vertex="1" parent="7">
                    <mxGeometry x="20" y="160" width="160" height="80" as="geometry"/>
                </mxCell>
                <mxCell id="9" value="" style="endArrow=classic;html=1;exitX=1;exitY=0.5;exitDx=0;exitDy=0;entryX=0;entryY=0.5;entryDx=0;entryDy=0;" edge="1" parent="20" source="4" target="8">
                    <mxGeometry width="50" height="50" relative="1" as="geometry">
                        <mxPoint x="330" y="210" as="sourcePoint"/>
                        <mxPoint x="380" y="160" as="targetPoint"/>
                    </mxGeometry>
                </mxCell>
                <mxCell id="11" value="" style="endArrow=classic;html=1;exitX=1;exitY=0.5;exitDx=0;exitDy=0;entryX=0;entryY=0.25;entryDx=0;entryDy=0;" edge="1" parent="20" source="8" target="6">
                    <mxGeometry width="50" height="50" relative="1" as="geometry">
                        <mxPoint x="550" y="-50" as="sourcePoint"/>
                        <mxPoint x="600" y="-100" as="targetPoint"/>
                    </mxGeometry>
                </mxCell>
                <mxCell id="13" value="Dropbox" style="swimlane;whiteSpace=wrap;html=1;fillColor=#dae8fc;strokeColor=#6c8ebf;" vertex="1" parent="20">
                    <mxGeometry x="760" y="20" width="200" height="300" as="geometry"/>
                </mxCell>
                <mxCell id="14" value="Pliki do odpowiedniego folderu" style="rounded=0;whiteSpace=wrap;html=1;" vertex="1" parent="13">
                    <mxGeometry x="20" y="200" width="160" height="80" as="geometry"/>
                </mxCell>
                <mxCell id="16" value="" style="endArrow=classic;html=1;exitX=1;exitY=0.75;exitDx=0;exitDy=0;entryX=0;entryY=0.25;entryDx=0;entryDy=0;" edge="1" parent="20" source="10" target="14">
                    <mxGeometry width="50" height="50" relative="1" as="geometry">
                        <mxPoint x="530" y="580" as="sourcePoint"/>
                        <mxPoint x="580" y="530" as="targetPoint"/>
                    </mxGeometry>
                </mxCell>
                <mxCell id="17" value="" style="endArrow=classic;html=1;exitX=0;exitY=0.75;exitDx=0;exitDy=0;entryX=1;entryY=0.425;entryDx=0;entryDy=0;entryPerimeter=0;" edge="1" parent="20" source="6" target="10">
                    <mxGeometry width="50" height="50" relative="1" as="geometry">
                        <mxPoint x="620" y="590" as="sourcePoint"/>
                        <mxPoint x="670" y="540" as="targetPoint"/>
                    </mxGeometry>
                </mxCell>
                <mxCell id="21" value="Aplikacja" style="swimlane;horizontal=0;whiteSpace=wrap;html=1;" vertex="1" parent="1">
                    <mxGeometry x="480" y="360" width="1700" height="670" as="geometry"/>
                </mxCell>
                <mxCell id="22" value="Użytkownik" style="swimlane;whiteSpace=wrap;html=1;fillColor=#d5e8d4;strokeColor=#82b366;" vertex="1" parent="21">
                    <mxGeometry x="40" y="20" width="200" height="630" as="geometry"/>
                </mxCell>
                <mxCell id="23" value="Wybranie pliku do konwersji, kliknięcie opcji w menu kontekstowym" style="rounded=0;whiteSpace=wrap;html=1;fillColor=#f8cecc;strokeColor=#b85450;" vertex="1" parent="22">
                    <mxGeometry x="20" y="40" width="160" height="80" as="geometry"/>
                </mxCell>
                <mxCell id="49" value="&lt;span style=&quot;background-color: rgb(153, 255, 255);&quot;&gt;Lista szablonów&amp;nbsp;&lt;/span&gt;pusta?" style="swimlane;whiteSpace=wrap;html=1;startSize=23;" vertex="1" parent="22">
                    <mxGeometry x="20" y="300" width="160" height="200" as="geometry"/>
                </mxCell>
                <mxCell id="50" value="Informacja, model stworzy nowy szablon" style="rounded=0;whiteSpace=wrap;html=1;fillColor=#60a917;strokeColor=#2D7600;fontColor=#ffffff;" vertex="1" parent="49">
                    <mxGeometry x="20" y="40" width="120" height="60" as="geometry"/>
                </mxCell>
                <mxCell id="51" value="Wybranie szablonu z &lt;span style=&quot;background-color: rgb(153, 255, 255);&quot;&gt;listy&lt;/span&gt;" style="rounded=0;whiteSpace=wrap;html=1;fillColor=#a20025;strokeColor=#6F0000;fontColor=#ffffff;" vertex="1" parent="49">
                    <mxGeometry x="20" y="120" width="120" height="60" as="geometry"/>
                </mxCell>
                <mxCell id="89" value="Jest!" style="rounded=0;whiteSpace=wrap;html=1;fillColor=#d5e8d4;strokeColor=#82b366;" vertex="1" parent="22">
                    <mxGeometry x="20" y="530" width="160" height="80" as="geometry"/>
                </mxCell>
                <mxCell id="27" value="Dropbox" style="swimlane;whiteSpace=wrap;html=1;fillColor=#dae8fc;strokeColor=#6c8ebf;" vertex="1" parent="21">
                    <mxGeometry x="280" y="20" width="200" height="630" as="geometry"/>
                </mxCell>
                <mxCell id="28" value="Model klasyfikujący (NN?)" style="swimlane;whiteSpace=wrap;html=1;" vertex="1" parent="21">
                    <mxGeometry x="760" y="20" width="200" height="630" as="geometry"/>
                </mxCell>
                <mxCell id="35" value="Znajdź wszystkie szablony, które mogą być odpowiednie" style="rounded=0;whiteSpace=wrap;html=1;" vertex="1" parent="28">
                    <mxGeometry x="-220" y="150" width="160" height="80" as="geometry"/>
                </mxCell>
                <mxCell id="36" value="" style="endArrow=classic;html=1;exitX=0;exitY=0.5;exitDx=0;exitDy=0;entryX=1;entryY=0.25;entryDx=0;entryDy=0;" edge="1" parent="28" source="31" target="35">
                    <mxGeometry width="50" height="50" relative="1" as="geometry">
                        <mxPoint x="-10" y="-70" as="sourcePoint"/>
                        <mxPoint x="40" y="-120" as="targetPoint"/>
                    </mxGeometry>
                </mxCell>
                <mxCell id="41" value="Cechy" style="edgeLabel;html=1;align=center;verticalAlign=middle;resizable=0;points=[];labelBackgroundColor=#FFFF99;" vertex="1" connectable="0" parent="36">
                    <mxGeometry x="0.2751" y="-1" relative="1" as="geometry">
                        <mxPoint x="9" y="-5" as="offset"/>
                    </mxGeometry>
                </mxCell>
                <mxCell id="31" value="Próba klasyfikacji szablonu dokumentu" style="rounded=0;whiteSpace=wrap;html=1;" vertex="1" parent="28">
                    <mxGeometry x="20" y="120" width="160" height="80" as="geometry"/>
                </mxCell>
                <mxCell id="29" value="OCR" style="swimlane;whiteSpace=wrap;html=1;" vertex="1" parent="21">
                    <mxGeometry x="1000" y="20" width="200" height="630" as="geometry"/>
                </mxCell>
                <mxCell id="57" value="Wyodrębnienie tekstu" style="rounded=0;whiteSpace=wrap;html=1;" vertex="1" parent="29">
                    <mxGeometry x="20" y="60" width="160" height="80" as="geometry"/>
                </mxCell>
                <mxCell id="30" value="Model językowy (NLM)" style="swimlane;whiteSpace=wrap;html=1;" vertex="1" parent="21">
                    <mxGeometry x="1240" y="20" width="200" height="630" as="geometry"/>
                </mxCell>
                <mxCell id="60" value="Poprawa, tłumaczenie tekstu" style="rounded=0;whiteSpace=wrap;html=1;" vertex="1" parent="30">
                    <mxGeometry x="20" y="120" width="160" height="80" as="geometry"/>
                </mxCell>
                <mxCell id="33" value="Baza danych" style="swimlane;whiteSpace=wrap;html=1;" vertex="1" parent="21">
                    <mxGeometry x="520" y="20" width="200" height="630" as="geometry"/>
                </mxCell>
                <mxCell id="69" value="Tekst tymczasowo w bazie" style="rounded=0;whiteSpace=wrap;html=1;" vertex="1" parent="33">
                    <mxGeometry x="20" y="250" width="160" height="80" as="geometry"/>
                </mxCell>
                <mxCell id="82" value="Zapis szablonu do bazy" style="rounded=0;whiteSpace=wrap;html=1;" vertex="1" parent="33">
                    <mxGeometry x="20" y="380" width="160" height="80" as="geometry"/>
                </mxCell>
                <mxCell id="34" value="&lt;i&gt;Factory&lt;/i&gt; szablonów" style="swimlane;whiteSpace=wrap;html=1;" vertex="1" parent="21">
                    <mxGeometry x="1480" y="20" width="200" height="630" as="geometry"/>
                </mxCell>
                <mxCell id="76" value="Wypełnienie szablonu" style="rounded=0;whiteSpace=wrap;html=1;" vertex="1" parent="34">
                    <mxGeometry x="20" y="480" width="160" height="80" as="geometry"/>
                </mxCell>
                <mxCell id="80" value="Stworzenie szablonu" style="rounded=0;whiteSpace=wrap;html=1;" vertex="1" parent="34">
                    <mxGeometry x="20" y="350" width="160" height="80" as="geometry"/>
                </mxCell>
                <mxCell id="84" value="" style="endArrow=classic;html=1;exitX=0;exitY=0.75;exitDx=0;exitDy=0;entryX=0;entryY=0.25;entryDx=0;entryDy=0;" edge="1" parent="34" source="80" target="76">
                    <mxGeometry width="50" height="50" relative="1" as="geometry">
                        <mxPoint x="20" y="880" as="sourcePoint"/>
                        <mxPoint x="70" y="830" as="targetPoint"/>
                        <Array as="points">
                            <mxPoint x="-20" y="460"/>
                        </Array>
                    </mxGeometry>
                </mxCell>
                <mxCell id="86" value="Szablon" style="edgeLabel;html=1;align=center;verticalAlign=middle;resizable=0;points=[];labelBackgroundColor=#99FFFF;" vertex="1" connectable="0" parent="84">
                    <mxGeometry x="-0.3394" relative="1" as="geometry">
                        <mxPoint x="-3" y="13" as="offset"/>
                    </mxGeometry>
                </mxCell>
                <mxCell id="37" value="" style="endArrow=classic;html=1;exitX=1;exitY=0.5;exitDx=0;exitDy=0;entryX=0;entryY=0.25;entryDx=0;entryDy=0;" edge="1" parent="21" source="23" target="31">
                    <mxGeometry width="50" height="50" relative="1" as="geometry">
                        <mxPoint x="260" y="110" as="sourcePoint"/>
                        <mxPoint x="310" y="60" as="targetPoint"/>
                    </mxGeometry>
                </mxCell>
                <mxCell id="38" value="Plik PDF" style="edgeLabel;html=1;align=center;verticalAlign=middle;resizable=0;points=[];labelBackgroundColor=#99FF99;" vertex="1" connectable="0" parent="37">
                    <mxGeometry x="0.0423" relative="1" as="geometry">
                        <mxPoint x="-1" as="offset"/>
                    </mxGeometry>
                </mxCell>
                <mxCell id="43" value="" style="endArrow=classic;html=1;exitX=0;exitY=0.75;exitDx=0;exitDy=0;entryX=1;entryY=0;entryDx=0;entryDy=0;" edge="1" parent="21" source="35" target="49">
                    <mxGeometry width="50" height="50" relative="1" as="geometry">
                        <mxPoint x="630" y="290" as="sourcePoint"/>
                        <mxPoint x="220" y="180" as="targetPoint"/>
                    </mxGeometry>
                </mxCell>
                <mxCell id="47" value="Lista szablonów" style="edgeLabel;html=1;align=center;verticalAlign=middle;resizable=0;points=[];labelBackgroundColor=#99FFFF;" vertex="1" connectable="0" parent="43">
                    <mxGeometry x="-0.185" relative="1" as="geometry">
                        <mxPoint x="-18" as="offset"/>
                    </mxGeometry>
                </mxCell>
                <mxCell id="58" value="" style="endArrow=classic;html=1;exitX=1;exitY=0.5;exitDx=0;exitDy=0;entryX=0;entryY=0.25;entryDx=0;entryDy=0;" edge="1" parent="21" source="23" target="57">
                    <mxGeometry width="50" height="50" relative="1" as="geometry">
                        <mxPoint x="840" y="-40" as="sourcePoint"/>
                        <mxPoint x="890" y="-90" as="targetPoint"/>
                    </mxGeometry>
                </mxCell>
                <mxCell id="59" value="Plik PDF" style="edgeLabel;html=1;align=center;verticalAlign=middle;resizable=0;points=[];labelBackgroundColor=#99FF99;" vertex="1" connectable="0" parent="58">
                    <mxGeometry x="0.0862" y="-1" relative="1" as="geometry">
                        <mxPoint x="-1" y="-1" as="offset"/>
                    </mxGeometry>
                </mxCell>
                <mxCell id="64" value="" style="endArrow=classic;html=1;exitX=1;exitY=0.5;exitDx=0;exitDy=0;entryX=0;entryY=0;entryDx=0;entryDy=0;" edge="1" parent="21" source="57" target="60">
                    <mxGeometry width="50" height="50" relative="1" as="geometry">
                        <mxPoint x="1190" y="-40" as="sourcePoint"/>
                        <mxPoint x="1240" y="-90" as="targetPoint"/>
                    </mxGeometry>
                </mxCell>
                <mxCell id="65" value="Tekst" style="edgeLabel;html=1;align=center;verticalAlign=middle;resizable=0;points=[];labelBackgroundColor=#FF99FF;" vertex="1" connectable="0" parent="64">
                    <mxGeometry x="-0.0357" relative="1" as="geometry">
                        <mxPoint as="offset"/>
                    </mxGeometry>
                </mxCell>
                <mxCell id="66" value="" style="endArrow=classic;html=1;exitX=0;exitY=0.5;exitDx=0;exitDy=0;entryX=1;entryY=0.5;entryDx=0;entryDy=0;" edge="1" parent="21" source="60" target="31">
                    <mxGeometry width="50" height="50" relative="1" as="geometry">
                        <mxPoint x="1280" y="270" as="sourcePoint"/>
                        <mxPoint x="1330" y="220" as="targetPoint"/>
                    </mxGeometry>
                </mxCell>
                <mxCell id="67" value="Poprawiony tekst" style="edgeLabel;html=1;align=center;verticalAlign=middle;resizable=0;points=[];labelBackgroundColor=#FF99CC;" vertex="1" connectable="0" parent="66">
                    <mxGeometry x="0.1318" y="1" relative="1" as="geometry">
                        <mxPoint x="13" y="-1" as="offset"/>
                    </mxGeometry>
                </mxCell>
                <mxCell id="70" value="" style="endArrow=classic;html=1;exitX=0;exitY=1;exitDx=0;exitDy=0;entryX=1;entryY=0.5;entryDx=0;entryDy=0;" edge="1" parent="21" source="60" target="69">
                    <mxGeometry width="50" height="50" relative="1" as="geometry">
                        <mxPoint x="1280" y="300" as="sourcePoint"/>
                        <mxPoint x="1330" y="250" as="targetPoint"/>
                    </mxGeometry>
                </mxCell>
                <mxCell id="71" value="Przetłumaczony tekst" style="edgeLabel;html=1;align=center;verticalAlign=middle;resizable=0;points=[];labelBackgroundColor=#FF99CC;" vertex="1" connectable="0" parent="70">
                    <mxGeometry x="0.0092" y="3" relative="1" as="geometry">
                        <mxPoint x="1" as="offset"/>
                    </mxGeometry>
                </mxCell>
                <mxCell id="75" value="" style="endArrow=classic;html=1;exitX=1;exitY=0.5;exitDx=0;exitDy=0;entryX=0;entryY=0.5;entryDx=0;entryDy=0;" edge="1" parent="21" source="51" target="76">
                    <mxGeometry width="50" height="50" relative="1" as="geometry">
                        <mxPoint x="370" y="570" as="sourcePoint"/>
                        <mxPoint x="540" y="470" as="targetPoint"/>
                    </mxGeometry>
                </mxCell>
                <mxCell id="79" value="Szablon" style="edgeLabel;html=1;align=center;verticalAlign=middle;resizable=0;points=[];labelBackgroundColor=#99FFFF;" vertex="1" connectable="0" parent="75">
                    <mxGeometry x="-0.002" relative="1" as="geometry">
                        <mxPoint as="offset"/>
                    </mxGeometry>
                </mxCell>
                <mxCell id="81" value="" style="endArrow=classic;html=1;exitX=1;exitY=0.5;exitDx=0;exitDy=0;entryX=0;entryY=0.25;entryDx=0;entryDy=0;" edge="1" parent="21" source="50" target="80">
                    <mxGeometry width="50" height="50" relative="1" as="geometry">
                        <mxPoint x="310" y="410" as="sourcePoint"/>
                        <mxPoint x="360" y="360" as="targetPoint"/>
                    </mxGeometry>
                </mxCell>
                <mxCell id="83" value="" style="endArrow=classic;html=1;exitX=0;exitY=0.75;exitDx=0;exitDy=0;entryX=1;entryY=0.5;entryDx=0;entryDy=0;" edge="1" parent="21" source="80" target="82">
                    <mxGeometry width="50" height="50" relative="1" as="geometry">
                        <mxPoint x="1090" y="460" as="sourcePoint"/>
                        <mxPoint x="1140" y="410" as="targetPoint"/>
                    </mxGeometry>
                </mxCell>
                <mxCell id="85" value="Szablon" style="edgeLabel;html=1;align=center;verticalAlign=middle;resizable=0;points=[];labelBackgroundColor=#99FFFF;" vertex="1" connectable="0" parent="83">
                    <mxGeometry x="-0.055" y="-1" relative="1" as="geometry">
                        <mxPoint x="-1" as="offset"/>
                    </mxGeometry>
                </mxCell>
                <mxCell id="87" value="" style="endArrow=classic;html=1;exitX=1;exitY=0.75;exitDx=0;exitDy=0;entryX=1;entryY=0.5;entryDx=0;entryDy=0;" edge="1" parent="21" source="69" target="76">
                    <mxGeometry width="50" height="50" relative="1" as="geometry">
                        <mxPoint x="1570" y="260" as="sourcePoint"/>
                        <mxPoint x="1800" y="360" as="targetPoint"/>
                        <Array as="points">
                            <mxPoint x="1690" y="330"/>
                            <mxPoint x="1690" y="540"/>
                        </Array>
                    </mxGeometry>
                </mxCell>
                <mxCell id="88" value="Przetłumaczony tekst" style="edgeLabel;html=1;align=center;verticalAlign=middle;resizable=0;points=[];labelBackgroundColor=#FF99CC;" vertex="1" connectable="0" parent="87">
                    <mxGeometry x="-0.2963" y="-1" relative="1" as="geometry">
                        <mxPoint as="offset"/>
                    </mxGeometry>
                </mxCell>
                <mxCell id="90" value="" style="endArrow=classic;html=1;exitX=0;exitY=0.75;exitDx=0;exitDy=0;entryX=1;entryY=0.5;entryDx=0;entryDy=0;" edge="1" parent="21" source="76" target="89">
                    <mxGeometry width="50" height="50" relative="1" as="geometry">
                        <mxPoint x="1090" y="640" as="sourcePoint"/>
                        <mxPoint x="1140" y="590" as="targetPoint"/>
                    </mxGeometry>
                </mxCell>
                <mxCell id="91" value="Gotowy plik" style="edgeLabel;html=1;align=center;verticalAlign=middle;resizable=0;points=[];labelBackgroundColor=#99FF99;" vertex="1" connectable="0" parent="90">
                    <mxGeometry x="0.0264" y="1" relative="1" as="geometry">
                        <mxPoint as="offset"/>
                    </mxGeometry>
                </mxCell>
                <mxCell id="26" value="" style="endArrow=classic;html=1;exitX=0;exitY=0.75;exitDx=0;exitDy=0;entryX=1;entryY=0.25;entryDx=0;entryDy=0;" edge="1" parent="1" source="14" target="23">
                    <mxGeometry width="50" height="50" relative="1" as="geometry">
                        <mxPoint x="1040" y="340" as="sourcePoint"/>
                        <mxPoint x="1090" y="290" as="targetPoint"/>
                    </mxGeometry>
                </mxCell>
            </root>
        </mxGraphModel>
    </diagram>
</mxfile>